<svg xmlns="http://www.w3.org/2000/svg" xmlns:xlink="http://www.w3.org/1999/xlink" width="1200" height="700" preserveAspectRatio="xMidYMid meet" version="1.1" viewBox="0 0 1200 700"><defs><path id="buoT0wFAB" d="M1046.67 358.28C1046.67 512.48 921.48 637.67 767.28 637.67C613.07 637.67 487.88 512.48 487.88 358.28C487.88 204.07 613.07 78.88 767.28 78.88C921.48 78.88 1046.67 204.07 1046.67 358.28Z"/><path id="bLLBPmocg" d="M930.05 358.28C930.05 448.11 857.11 521.05 767.28 521.05C677.44 521.05 604.5 448.11 604.5 358.28C604.5 268.44 677.44 195.5 767.28 195.5C857.11 195.5 930.05 268.44 930.05 358.28Z"/><path id="c2YkHd0iXc" d="M1200 126.31L1200 700L0 700L1200 126.31Z"/><path id="acYVAeiCy" d="M613.22 704.37L0 704.37L0 163.63L613.22 704.37Z"/></defs><g><g><g><g><use fill="#000" fill-opacity="1" opacity=".19" xlink:href="#buoT0wFAB"/></g><g><use fill="#fff" fill-opacity="1" opacity=".2" xlink:href="#bLLBPmocg"/></g></g><g><use fill="#fff" fill-opacity="1" opacity=".09" xlink:href="#c2YkHd0iXc"/></g><g><use fill="#000" fill-opacity="1" opacity=".15" xlink:href="#acYVAeiCy"/></g></g></g></svg>